<mxfile host="app.diagrams.net" modified="2023-08-23T10:44:51.028Z" agent="Mozilla/5.0 (Macintosh; Intel Mac OS X 10_15_7) AppleWebKit/537.36 (KHTML, like Gecko) Chrome/116.0.0.0 Safari/537.36" version="21.6.9" etag="iTDF9HMayw1i0gxjrfRx" type="github">
  <diagram name="Page-1" id="4S-05DJH4wf0Fe2X8Ial">
    <mxGraphModel>
      <root>
        <mxCell id="0" />
        <mxCell id="1" parent="0" />
      </root>
    </mxGraphModel>
  </diagram>
</mxfile>
